<svg xmlns="http://www.w3.org/2000/svg" width="24" height="24" viewBox="0 0 24 24">
  <path id="Gear" d="M127.248,20.06V16.828c-1.651-.587-2.694-.752-3.219-2.019h0c-.527-1.271.1-2.134.847-3.707l-2.285-2.285c-1.561.742-2.433,1.375-3.707.847h0c-1.269-.526-1.435-1.576-2.019-3.219h-3.232c-.582,1.635-.749,2.692-2.019,3.219h0c-1.271.528-2.132-.1-3.707-.847L105.62,11.1c.745,1.568,1.375,2.434.847,3.707s-1.584,1.438-3.219,2.02V20.06c1.632.58,2.692.749,3.219,2.019s-.114,2.166-.847,3.707l2.285,2.286c1.562-.743,2.434-1.375,3.707-.847h0c1.27.526,1.436,1.579,2.019,3.219h3.232c.582-1.636.75-2.69,2.027-3.222h0c1.262-.524,2.12.1,3.7.851l2.285-2.286c-.744-1.563-1.375-2.433-.848-3.706S125.615,20.641,127.248,20.06Zm-12,2.384a4,4,0,1,1,4-4A4,4,0,0,1,115.248,22.444Z" transform="translate(-103.248 -6.444)" fill="#9a9a9a"/>
</svg>
