<svg xmlns="http://www.w3.org/2000/svg" width="24" height="19.999" viewBox="0 0 24 19.999">
  <path id="Get_Gealthy" data-name="Get Gealthy" d="M21.826,9H19.74A4.26,4.26,0,0,0,20,7.59a3.506,3.506,0,0,0-4.024-3.573C13.3,4.264,11.46,7.727,11,8.5c-.527-.863-2.261-4.238-4.981-4.494A3.515,3.515,0,0,0,2,7.589C2,10.7,6.347,14.673,11,19.2c1.16-1.127,2.285-2.208,3.324-3.243l.97,1.857C13.977,19.12,12.526,20.5,11,22,4.837,15.962,0,11.8,0,7.6A5.505,5.505,0,0,1,5.674,2,5.987,5.987,0,0,1,11,4.952,6,6,0,0,1,16.254,2.01,5.5,5.5,0,0,1,22,7.605,5.863,5.863,0,0,1,21.826,9ZM10.732,13a2,2,0,1,1,0-2h1.222l1.88-2.71a.7.7,0,0,1,1.2.081l2.27,4.437.813-1.45A.7.7,0,0,1,18.726,11H24v2H19.487l-1.759,2.908a.7.7,0,0,1-1.227-.052L14.245,11.3,13.256,12.7a.7.7,0,0,1-.573.3H10.732Z" transform="translate(0 -2)" fill="#707070" fill-rule="evenodd"/>
</svg>
