<svg xmlns="http://www.w3.org/2000/svg" width="7.452" height="13" viewBox="0 0 7.452 13">
  <path id="Question_Mark" data-name="Question Mark" d="M10.256,11.646A1.354,1.354,0,1,1,8.9,10.292,1.353,1.353,0,0,1,10.256,11.646ZM8.945,0C6.763,0,5.121,1.459,5.121,4.333H7.263c0-1.248.491-2.269,1.638-2.269A1.409,1.409,0,0,1,10.355,3.37c.067.9-.415,1.36-1.025,1.94C7.746,6.816,7.8,7.5,7.8,9.208H9.941a2.887,2.887,0,0,1,1-2.524,4.778,4.778,0,0,0,1.636-3.219A3.325,3.325,0,0,0,8.945,0Z" transform="translate(-5.121)" fill="#9a9a9a"/>
</svg>
