<svg xmlns="http://www.w3.org/2000/svg" width="24" height="24" viewBox="0 0 24 24">
  <path id="Feel_Better" data-name="Feel Better" d="M4.069,13H0V11H4.069a7.281,7.281,0,0,0,0,2ZM7.1,5.688,4.222,2.807,2.808,4.221,5.689,7.1A8.019,8.019,0,0,1,7.1,5.688ZM18.312,7.1l2.881-2.881L19.779,2.807,16.9,5.688A8.121,8.121,0,0,1,18.312,7.1ZM12,4a8.047,8.047,0,0,1,1,.069V0H11V4.069A8.047,8.047,0,0,1,12,4Zm0,16a8.047,8.047,0,0,1-1-.069V24h2V19.931A8.047,8.047,0,0,1,12,20Zm7.931-9a7.281,7.281,0,0,1,0,2H24V11ZM16.9,18.312l2.88,2.88,1.415-1.414-2.88-2.88A8.127,8.127,0,0,1,16.9,18.312ZM5.688,16.9l-2.88,2.88,1.414,1.414,2.88-2.88A8.053,8.053,0,0,1,5.688,16.9ZM8,12a4,4,0,1,0,4-4A4,4,0,0,0,8,12Zm10,0a6,6,0,1,1-6-6A6,6,0,0,1,18,12Z" fill="#707070"/>
</svg>
