<svg id="Phone" xmlns="http://www.w3.org/2000/svg" width="294" height="511" viewBox="0 0 294 511">
  <path id="Rectangle_95" data-name="Rectangle 95" d="M39,0H251a39,39,0,0,1,39,39V506a0,0,0,0,1,0,0H0a0,0,0,0,1,0,0V39A39,39,0,0,1,39,0Z" transform="translate(4 5)" fill="#dedede"/>
  <path id="Rectangle_99" data-name="Rectangle 99" d="M2,0H4A0,0,0,0,1,4,0V26a0,0,0,0,1,0,0H2a2,2,0,0,1-2-2V2A2,2,0,0,1,2,0Z" transform="translate(0 89)" fill="#dedede"/>
  <path id="Rectangle_100" data-name="Rectangle 100" d="M2,0H4A0,0,0,0,1,4,0V21a0,0,0,0,1,0,0H2a2,2,0,0,1-2-2V2A2,2,0,0,1,2,0Z" transform="translate(0 146)" fill="#dedede"/>
  <path id="Rectangle_101" data-name="Rectangle 101" d="M2,0H4A0,0,0,0,1,4,0V21a0,0,0,0,1,0,0H2a2,2,0,0,1-2-2V2A2,2,0,0,1,2,0Z" transform="translate(0 197)" fill="#dedede"/>
  <circle id="Ellipse_38" data-name="Ellipse 38" cx="6.5" cy="6.5" r="6.5" transform="translate(143 26)" fill="#fff"/>
  <rect id="Rectangle_97" data-name="Rectangle 97" width="56" height="13" rx="6.5" transform="translate(121 48)" fill="#fff"/>
  <path id="Rectangle_98" data-name="Rectangle 98" d="M2,0H43a2,2,0,0,1,2,2V6a0,0,0,0,1,0,0H0A0,0,0,0,1,0,6V2A2,2,0,0,1,2,0Z" transform="translate(200)" fill="#dedede"/>
  <rect id="Rectangle_96" data-name="Rectangle 96" width="250" height="421" transform="translate(24 90)" fill="#fff"/>
  <g id="Group_187" data-name="Group 187" transform="translate(-6937 -3655)">
    <g id="Group_186" data-name="Group 186" transform="translate(0 -2)">
      <rect id="Rectangle_106" data-name="Rectangle 106" width="215" height="48" rx="5" transform="translate(6977 4007)" fill="#b67942"/>
      <path id="Rectangle_108" data-name="Rectangle 108" d="M0,0H56.42a5,5,0,0,1,5,5V43a5,5,0,0,1-5,5H0a0,0,0,0,1,0,0V0A0,0,0,0,1,0,0Z" transform="translate(7130.58 4007)" fill="#dedede"/>
      <text id="_7" data-name="7" transform="translate(7166 4038)" font-size="15" font-family="HelveticaNeue-Bold, Helvetica Neue" font-weight="700" letter-spacing="0.1em"><tspan x="0" y="0">7</tspan></text>
      <text id="LESS_COFEE" data-name="LESS COFEE" transform="translate(6992 4033)" font-size="15" font-family="HelveticaNeue-Medium, Helvetica Neue" font-weight="500" letter-spacing="0.1em"><tspan x="0" y="0">LESS COFEE</tspan></text>
    </g>
    <g id="Group_183" data-name="Group 183" transform="translate(0 -2)">
      <rect id="Rectangle_103" data-name="Rectangle 103" width="215" height="48" rx="5" transform="translate(6977 3818)" fill="#f8c51c"/>
      <text id="_3" data-name="3" transform="translate(7166 3849)" font-size="15" font-family="HelveticaNeue-Bold, Helvetica Neue" font-weight="700" letter-spacing="0.1em"><tspan x="0" y="0">3</tspan></text>
      <text id="MEDITATION" transform="translate(6992 3844)" font-size="15" font-family="HelveticaNeue-Medium, Helvetica Neue" font-weight="500" letter-spacing="0.1em"><tspan x="0" y="0">MEDITATION</tspan></text>
      <text id="WEEKLY:_03_03_MIN" data-name="WEEKLY: 03 / 03 MIN" transform="translate(6992 3857)" fill="#fff" font-size="10" font-family="HelveticaNeue, Helvetica Neue" letter-spacing="0.1em"><tspan x="0" y="0">WEEKLY: 03 / 03 MIN</tspan></text>
    </g>
    <g id="Group_184" data-name="Group 184">
      <rect id="Rectangle_104" data-name="Rectangle 104" width="215" height="48" rx="5" transform="translate(6977 3879)" fill="#f96262"/>
      <path id="Rectangle_107" data-name="Rectangle 107" d="M0,0H38a5,5,0,0,1,5,5V43a5,5,0,0,1-5,5H0a0,0,0,0,1,0,0V0A0,0,0,0,1,0,0Z" transform="translate(7149 3879)" fill="#dedede"/>
      <text id="_5" data-name="5" transform="translate(7166 3910)" font-size="15" font-family="HelveticaNeue-Bold, Helvetica Neue" font-weight="700" letter-spacing="0.1em"><tspan x="0" y="0">5</tspan></text>
      <text id="GO_TO_THE_GYM" data-name="GO TO THE GYM" transform="translate(6992 3905)" font-size="15" font-family="HelveticaNeue-Medium, Helvetica Neue" font-weight="500" letter-spacing="0.1em"><tspan x="0" y="0">GO TO THE GYM</tspan></text>
      <text id="WEEKLY:_03_03_MIN-2" data-name="WEEKLY: 03 / 03 MIN" transform="translate(6992 3918)" fill="#fff" font-size="10" font-family="HelveticaNeue, Helvetica Neue" letter-spacing="0.1em"><tspan x="0" y="0">WEEKLY: 03 / 03 MIN</tspan></text>
    </g>
    <g id="Group_185" data-name="Group 185" transform="translate(0 2)">
      <rect id="Rectangle_105" data-name="Rectangle 105" width="215" height="48" rx="5" transform="translate(6977 3940)" fill="#2198d3"/>
      <text id="_3-2" data-name="3" transform="translate(7166 3971)" font-size="15" font-family="HelveticaNeue-Bold, Helvetica Neue" font-weight="700" letter-spacing="0.1em"><tspan x="0" y="0">3</tspan></text>
      <text id="DRINK_WATER" data-name="DRINK WATER" transform="translate(6992 3966)" font-size="15" font-family="HelveticaNeue-Medium, Helvetica Neue" font-weight="500" letter-spacing="0.1em"><tspan x="0" y="0">DRINK WATER</tspan></text>
      <text id="DAILY_:_08_08_MIN" data-name="DAILY : 08 / 08 MIN" transform="translate(6992 3979)" fill="#fff" font-size="10" font-family="HelveticaNeue, Helvetica Neue" letter-spacing="0.1em"><tspan x="0" y="0">DAILY : 08 / 08 MIN</tspan></text>
    </g>
  </g>
  <text id="DONE" transform="translate(109 135)" font-size="25" font-family="HelveticaNeue, Helvetica Neue" letter-spacing="0.1em"><tspan x="0" y="0">DONE</tspan></text>
</svg>
